<?xml version="1.0" encoding="UTF-8"?>
<svg version="1.1" xmlns="http://www.w3.org/2000/svg" width="1024" height="1024">
<path d="M0 0 C337.92 0 675.84 0 1024 0 C1024 337.92 1024 675.84 1024 1024 C686.08 1024 348.16 1024 0 1024 C0 686.08 0 348.16 0 0 Z " fill="#FCFCFC" transform="translate(0,0)"/>
<path d="M0 0 C337.92 0 675.84 0 1024 0 C1024 337.92 1024 675.84 1024 1024 C686.08 1024 348.16 1024 0 1024 C0 686.08 0 348.16 0 0 Z M243 108.6875 C242.0819458 108.94877686 241.1638916 109.21005371 240.21801758 109.47924805 C224.92518733 113.95007028 210.82440174 120.10245068 197 128 C196.02804688 128.55171875 195.05609375 129.1034375 194.0546875 129.671875 C185.39361743 134.89437098 177.68783243 141.46465409 170 148 C169.44103027 148.4748584 168.88206055 148.9497168 168.30615234 149.43896484 C132.84883991 179.90786084 109.52772179 226.53379997 106 273 C105.67352247 279.70924401 105.71193209 286.42524513 105.71911621 293.14067078 C105.71393451 295.109894 105.70790425 297.07911514 105.70110941 299.04833347 C105.68513181 304.40918084 105.68139946 309.76997444 105.67991447 315.1308428 C105.67618475 320.93282388 105.66107609 326.73477795 105.64764404 332.53674316 C105.62059264 345.2005742 105.60844616 357.86439248 105.59962273 370.52824759 C105.59407856 378.45079357 105.58560046 386.37333474 105.57661438 394.29587746 C105.5522446 416.27515569 105.53157202 438.25443025 105.5248642 460.23372173 C105.52442095 461.6519593 105.52397738 463.07019686 105.52353349 464.48843442 C105.52309223 465.90986376 105.52265127 467.3312931 105.5222106 468.75272244 C105.52132556 471.60378437 105.52043131 474.45484628 105.51953125 477.3059082 C105.51931247 478.01279237 105.51909369 478.71967653 105.51886827 479.44798143 C105.51161493 502.3434286 105.47979625 525.23874882 105.43315052 548.13414742 C105.38379268 572.40561762 105.3565111 596.67701538 105.35412836 620.94853717 C105.35243402 634.1536507 105.34099519 647.35862535 105.30448914 660.56369591 C105.27350018 671.81186661 105.26355532 683.0598195 105.27996534 694.30802485 C105.28771279 700.03353299 105.28624631 705.7586038 105.25785065 711.48405647 C104.86974077 756.01229263 104.86974077 756.01229263 117.36328125 798.421875 C117.79463379 799.33904297 118.22598633 800.25621094 118.67041016 801.20117188 C119.32855713 802.5865918 119.32855713 802.5865918 120 804 C120.84886311 805.85882434 121.69651537 807.7182021 122.54296875 809.578125 C129.99090095 825.66073245 138.36777413 839.59091547 150 853 C150.69480469 853.80566406 151.38960937 854.61132812 152.10546875 855.44140625 C154.36225046 858.00238076 156.66858329 860.50678149 159 863 C159.67144043 863.73041504 159.67144043 863.73041504 160.35644531 864.47558594 C177.79616208 883.31808837 200.70753243 898.53304362 225 907 C225.66467285 907.23380371 226.3293457 907.46760742 227.01416016 907.70849609 C229.336137 908.51443361 231.66577611 909.29278663 234 910.0625 C234.69246826 910.29630371 235.38493652 910.53010742 236.09838867 910.77099609 C252.24240452 915.88709506 268.1564671 917.59197714 285.00688171 917.50120544 C287.04555755 917.50510886 289.08423065 917.51075758 291.12289745 917.51797634 C296.66596502 917.53259901 302.20874469 917.52262905 307.75180256 917.50823963 C313.75252748 917.49705819 319.75321435 917.50909591 325.75393677 917.51808167 C336.80902051 917.53116647 347.86401738 917.52627066 358.91909556 917.51200638 C369.13317833 917.49891334 379.34722843 917.49376656 389.56131935 917.49632454 C390.2409464 917.49648495 390.92057345 917.49664537 391.62079526 917.49681065 C394.3801429 917.49747432 397.13949053 917.49817674 399.89883816 917.49893599 C425.73811582 917.50594662 451.57733603 917.49051298 477.41659908 917.46431253 C500.33903004 917.44119278 523.2613979 917.43581363 546.18383789 917.44604492 C552.05667715 917.44864725 557.92951642 917.45123236 563.80235577 917.45364285 C564.52552808 917.45394029 565.24870039 917.45423774 565.99378701 917.4545442 C585.18941228 917.46216947 604.38503243 917.45573779 623.5806554 917.44494683 C625.64755241 917.4437991 627.71444943 917.44265593 629.78134645 917.44152 C631.15227058 917.44076476 632.5231947 917.43999911 633.89411882 917.43922299 C644.10018609 917.43358019 654.30623699 917.43488402 664.51230431 917.43945122 C676.12237707 917.4445731 687.73238947 917.43834648 699.3424476 917.41855692 C705.26052761 917.40871636 711.17850865 917.40354481 717.09659386 917.41144943 C722.52281724 917.4185486 727.94884165 917.41160327 733.37503896 917.3938458 C735.32896647 917.3898287 737.28291236 917.39075463 739.23683282 917.39736467 C780.74940203 917.52568845 820.67541278 902.19281651 852 875 C853.26070312 873.90558594 853.26070312 873.90558594 854.546875 872.7890625 C857.06510334 870.56019581 859.53933485 868.29218011 862 866 C862.78890625 865.27683594 863.5778125 864.55367187 864.390625 863.80859375 C875.84057893 852.89420218 885.24443321 839.74286436 893 826 C893.38220703 825.3390332 893.76441406 824.67806641 894.15820312 823.99707031 C906.03728586 803.31692391 912.9521884 781.43360934 917 758 C917.17109399 757.12677103 917.34218799 756.25354207 917.51846665 755.35385162 C918.07142492 751.50252958 918.14194315 747.73144104 918.13422108 743.85082531 C918.13657331 743.04266116 918.13892554 742.23449701 918.14134905 741.40184304 C918.14801618 738.68855137 918.14758151 735.97530783 918.14717102 733.26200867 C918.15047112 731.29886754 918.15419699 729.33572709 918.1583125 727.3725875 C918.16832492 721.97305407 918.17204811 716.57353176 918.17470181 711.17399037 C918.17860737 705.35147259 918.18818586 699.52896359 918.19691467 693.70645142 C918.21667689 679.63825612 918.22674716 665.5700601 918.23564246 651.50185439 C918.24002769 644.87090856 918.24539407 638.23996353 918.25063133 631.60901833 C918.2677329 609.55300798 918.28216309 587.49699782 918.28938007 565.44098186 C918.28985482 564.01473337 918.29033071 562.58848488 918.29080774 561.16223638 C918.29104411 560.4549733 918.29128049 559.74771022 918.29152403 559.01901492 C918.29272517 555.43593508 918.29394064 551.85285523 918.29516602 548.26977539 C918.29552624 547.20318036 918.29552624 547.20318036 918.29589374 546.11503795 C918.30377417 523.09748926 918.3271779 500.0799923 918.35972196 477.06246617 C918.39410436 452.69996755 918.41373926 428.33749915 918.41702431 403.97497588 C918.41909097 390.7061913 918.42785758 377.43747022 918.45348549 364.16870689 C918.47527581 352.86082109 918.4832023 341.55302968 918.47351871 330.24512526 C918.46899743 324.48407956 918.47073247 318.72322828 918.49028015 312.9622097 C918.86736977 269.65922681 918.86736977 269.65922681 908 228 C907.6915918 227.23300781 907.38318359 226.46601563 907.06542969 225.67578125 C896.66592662 200.07391283 882.9206046 178.25170241 864 158 C862.86111328 156.77990234 862.86111328 156.77990234 861.69921875 155.53515625 C832.90509989 125.70426061 790.66250596 105.15708728 749.00423066 103.94177677 C743.20779085 103.84500913 737.41068741 103.86106923 731.6136322 103.86628723 C729.64118725 103.86441717 727.66874266 103.86211568 725.69629866 103.85942191 C720.29454446 103.85332159 714.89280578 103.85343542 709.49104893 103.85461628 C703.65784857 103.85482074 697.82465313 103.84929722 691.99145508 103.84455872 C680.56947465 103.83626109 669.14749938 103.83350427 657.72551619 103.83294634 C648.43769753 103.83247072 639.14988057 103.83041367 629.86206245 103.82724571 C627.18481066 103.82634811 624.50755886 103.8254583 621.83030707 103.82457083 C621.16465624 103.82434979 620.49900542 103.82412874 619.81318336 103.82390099 C601.09800231 103.81774966 582.38282184 103.81380013 563.66763973 103.81424427 C562.6099748 103.81426764 562.6099748 103.81426764 561.53094289 103.81429148 C557.95747821 103.81437458 554.38401352 103.81447362 550.81054883 103.81457619 C549.74607262 103.8146061 549.74607262 103.8146061 548.66009184 103.81463663 C547.22500512 103.81467706 545.7899184 103.81471886 544.35483168 103.81476202 C522.03806161 103.81537447 499.72130674 103.80787248 477.40454102 103.79418945 C452.3073606 103.77880787 427.21019017 103.7702245 402.11300474 103.77115268 C388.83392059 103.77152251 375.55485074 103.76875467 362.27577019 103.75797462 C350.96818906 103.74885369 339.66063285 103.74670743 328.35304963 103.75348405 C322.58884234 103.75674132 316.82468282 103.75683468 311.06048012 103.7481308 C305.77328971 103.74022965 300.48618467 103.74173391 295.19899625 103.75041493 C293.29659439 103.751942 291.39418604 103.75016403 289.49179184 103.74455485 C273.81426079 103.70142894 258.14636009 104.25244309 243 108.6875 Z " fill="#FDFDFD" transform="translate(0,0)"/>
<path d="M0 0 C10.80200974 3.74118386 20.55155072 10.50264203 29.0625 18 C29.91521484 18.74636719 29.91521484 18.74636719 30.78515625 19.5078125 C32.1875 20.8125 32.1875 20.8125 34.0625 23 C34.0625 23.99 34.0625 24.98 34.0625 26 C33.41514893 26.30067383 32.76779785 26.60134766 32.10083008 26.91113281 C-3.38007369 43.46742791 -36.6816819 63.81696279 -65.9375 90 C-66.88109375 90.83273437 -67.8246875 91.66546875 -68.796875 92.5234375 C-75.43465765 98.48277275 -81.78951757 104.72220384 -88.125 111 C-88.97602295 111.83797119 -89.8270459 112.67594238 -90.70385742 113.53930664 C-91.49638916 114.33071045 -92.2889209 115.12211426 -93.10546875 115.9375 C-93.81985107 116.64777344 -94.5342334 117.35804688 -95.27026367 118.08984375 C-97.15044493 119.9961843 -97.15044493 119.9961843 -97.9375 123 C-78.43050979 116.00250251 -61.06709034 109.77144522 -45.70263672 95.61621094 C-42.66363559 92.83361239 -39.55048467 90.13672847 -36.4375 87.4375 C-35.81004883 86.89262939 -35.18259766 86.34775879 -34.53613281 85.78637695 C-28.17711103 80.2932261 -21.64363746 75.06247632 -14.9375 70 C-14.26912109 69.49500977 -13.60074219 68.99001953 -12.91210938 68.46972656 C29.06963769 36.97372519 29.06963769 36.97372519 43.0625 38 C44.9375 39.0625 44.9375 39.0625 46.0625 41 C46.5 44.4375 46.5 44.4375 46.0625 48 C42.86203616 52.00668756 38.54515405 54.26091323 34.1875 56.8125 C26.72259427 61.28165697 19.44873648 65.98890109 12.25 70.875 C10.84548584 71.82016479 10.84548584 71.82016479 9.41259766 72.78442383 C4.86968048 75.88870922 0.76373437 78.91855497 -2.9375 83 C-0.51813683 83.16249454 1.89031859 83.28097817 4.3125 83.375 C4.99441406 83.42527344 5.67632812 83.47554688 6.37890625 83.52734375 C8.67884637 83.6568371 8.67884637 83.6568371 12.0625 83 C14.48082997 80.14415245 14.48082997 80.14415245 16.0625 77 C19.35326756 75.35461622 22.50776203 75.48425799 26.0625 76 C36.70723684 79.64473684 36.70723684 79.64473684 39.0625 82 C39.29442865 83.51469448 39.47465238 85.03754562 39.625 86.5625 C39.70878906 87.38878906 39.79257812 88.21507812 39.87890625 89.06640625 C39.93949219 89.70449219 40.00007812 90.34257812 40.0625 91 C42.6244097 92.08474383 45.1870283 93.16776957 47.75 94.25 C48.56984375 94.59699951 49.3896875 94.94399902 50.234375 95.30151367 C55.0447363 97.33077544 59.86475234 99.33301065 64.7023468 101.29660034 C67.3354039 102.36541007 69.96631217 103.43946455 72.59732056 104.51330566 C73.90494956 105.04508901 75.21368724 105.57415447 76.52352905 106.10046387 C78.38302855 106.8479083 80.23847293 107.60541678 82.09375 108.36328125 C83.17205078 108.79938721 84.25035156 109.23549316 85.36132812 109.68481445 C87.87943392 110.91086615 89.40189581 111.76812259 91.0625 114 C91.61557674 118.97769064 91.11838788 122.00383893 88.0625 126 C84.25233351 127.90508325 80.54877682 127.42999204 76.578125 126.28125 C73.70927028 125.25310553 70.88532459 124.14852044 68.0625 123 C66.58330078 122.40445313 66.58330078 122.40445313 65.07421875 121.796875 C60.22274684 119.80846368 55.43656014 117.72133458 50.6875 115.5 C44.30095397 112.55452123 37.71004206 110.28054363 31.0625 108 C30.4025 110.64 29.7425 113.28 29.0625 116 C30.43921875 116.47179687 30.43921875 116.47179687 31.84375 116.953125 C33.0709375 117.38109375 34.298125 117.8090625 35.5625 118.25 C36.7690625 118.66765625 37.975625 119.0853125 39.21875 119.515625 C42.52965431 120.73611852 45.61638749 122.23810344 48.75439453 123.84472656 C53.67922332 126.30974558 58.71148732 128.52944091 63.75 130.75 C65.39258789 131.50990234 65.39258789 131.50990234 67.06835938 132.28515625 C74.8358861 135.67744868 81.58459447 137.03279489 90.0625 136 C95.74460427 133.56481246 98.18763099 129.24091165 101.0625 124 C140.15880007 129.6800285 184.99091122 173.63749105 215.0625 198 C216.72847774 199.33419404 218.39498043 200.66773349 220.0625 202 C215.27790745 194.15010111 210.47360394 186.87651543 204.10546875 180.18359375 C202.0625 178 202.0625 178 200.109375 175.48046875 C197.96954539 172.88735462 195.75922727 170.95861435 193.125 168.875 C189.56454505 166.02757424 186.05544572 163.14650728 182.61474609 160.15527344 C146.84081591 129.20896705 105.11073747 108.43328969 61.66162109 90.60449219 C60.57059082 90.15493164 59.47956055 89.70537109 58.35546875 89.2421875 C57.36442139 88.83597168 56.37337402 88.42975586 55.35229492 88.01123047 C53.0625 87 53.0625 87 52.0625 86 C51.5625 83.8125 51.5625 83.8125 52.0625 81 C60.1670566 72.10475495 72.86002918 66.89227577 84.2578125 63.7890625 C86.9605078 63.02869418 89.46491028 62.05812361 92.0625 61 C100.02210084 58.33404395 107.70423276 57.2793691 116.0625 57 C116.92069336 56.96213379 117.77888672 56.92426758 118.66308594 56.88525391 C143.32382447 55.88754222 165.79426332 60.47211749 184.9375 76.99609375 C196.07556376 87.49945167 203.44798071 99.94973775 208.3828125 114.3671875 C209.84470267 117.29983646 209.84470267 117.29983646 213.09375 117.8671875 C214.4034375 117.91101563 215.713125 117.95484375 217.0625 118 C217.83964355 118.03528809 218.61678711 118.07057617 219.41748047 118.10693359 C232.00048436 118.58281222 243.7868972 117.70138649 256.0625 115 C257.18785156 114.79503906 258.31320312 114.59007812 259.47265625 114.37890625 C275.61902515 111.22026057 295.51749356 102.04588701 305.23046875 88.35351562 C307.6202744 84.64646215 309.78388589 80.81173356 311.94482422 76.96826172 C313.7867672 73.724543 315.71671648 70.54171099 317.6875 67.375 C318.36039063 66.26898438 319.03328125 65.16296875 319.7265625 64.0234375 C323.42617778 59.23497224 327.33233166 56.01777452 333.42578125 55.03686523 C335.07326827 54.85563841 336.72340565 54.69749215 338.375 54.55859375 C339.28147781 54.46539856 340.18795563 54.37220337 341.12190247 54.27618408 C344.10046023 53.97568659 347.08090932 53.70608798 350.0625 53.4375 C352.14557265 53.23497819 354.22849782 53.03093421 356.3112793 52.82543945 C361.77869741 52.29324334 367.24839024 51.79086455 372.71966553 51.30004883 C376.04993555 51.00112777 379.37973032 50.69731571 382.70947266 50.39257812 C389.0967982 49.81046826 395.48537334 49.24375681 401.875 48.6875 C402.87378174 48.60023651 403.87256348 48.51297302 404.90161133 48.42306519 C407.75299489 48.17641968 410.60485389 47.93649037 413.45703125 47.69921875 C414.28435257 47.62761536 415.11167389 47.55601196 415.96406555 47.48223877 C420.12952667 47.14407757 424.29804708 46.89750173 428.4753418 46.76879883 C429.28198776 46.7403035 430.08863373 46.71180817 430.91972351 46.68244934 C433.0625 47 433.0625 47 434.84138489 48.34648132 C436.0625 50 436.0625 50 436.1875 52.6875 C431.9149984 65.2676436 416.03677163 75.00237672 406.0625 83 C404.90728807 83.93587212 403.75235367 84.87208689 402.59765625 85.80859375 C390.87378324 95.28740351 378.86016196 104.34768637 366.56445312 113.07080078 C345.00091193 128.39449836 324.00779615 144.45507267 303.99804688 161.765625 C300.59363343 164.70703822 297.13986563 167.56518116 293.625 170.375 C286.43849593 176.21931875 279.74394278 182.59159695 273.0625 189 C272.49789063 189.54124512 271.93328125 190.08249023 271.3515625 190.64013672 C264.7874835 196.97062559 258.19682509 203.41932002 253.0625 211 C253.0625 211.66 253.0625 212.32 253.0625 213 C260.9825 215.31 268.9025 217.62 277.0625 220 C276.32693259 223.67783704 275.83846687 225.83454131 274.26953125 229.01953125 C273.89401123 229.78193115 273.51849121 230.54433105 273.1315918 231.32983398 C272.7169165 232.14911377 272.30224121 232.96839355 271.875 233.8125 C271.21721558 235.11779663 271.21721558 235.11779663 270.54614258 236.44946289 C255.53390982 265.78153488 237.13583766 293.59209618 219.0625 321.1015625 C218.41724365 322.08439209 217.7719873 323.06722168 217.10717773 324.07983398 C215.84119042 326.0056224 214.57253049 327.92965689 213.30102539 329.85180664 C210.44031849 334.20914188 207.68982021 338.57258802 205.18359375 343.14453125 C204.7457959 343.93666016 204.30799805 344.72878906 203.85693359 345.54492188 C203.06602227 347.00072536 202.29724905 348.46890108 201.55712891 349.95117188 C200.18466409 352.48358262 198.95405397 354.5839089 196.28076172 355.83154297 C194.20907358 356.37332249 192.1838313 356.71302945 190.0625 357 C188.74917934 357.25624583 187.43665899 357.51662995 186.125 357.78125 C184.77158149 358.02502421 183.41737814 358.26447344 182.0625 358.5 C181.33047363 358.62818115 180.59844727 358.7563623 179.84423828 358.88842773 C172.27869142 360.1823848 164.68399148 361.10066401 157.0625 362 C149.81790141 362.86876284 142.67752062 363.79950964 135.5625 365.4375 C128.15473822 367.11761092 120.68534784 368.03093259 113.14453125 368.90991211 C107.91490752 369.53905656 103.12579319 370.50389367 98.0625 372 C95.07523811 372.55123585 92.07150897 372.96133267 89.0625 373.375 C81.55661761 374.4503694 74.0895606 375.66844277 66.625 377 C58.91124094 378.36555619 51.19089757 379.62984578 43.4375 380.75 C42.56681885 380.87761719 41.6961377 381.00523437 40.79907227 381.13671875 C30.04449195 382.6546613 30.04449195 382.6546613 27.24609375 380.7890625 C24.75006153 377.01618212 26.33898722 372.2245377 27.0625 368 C27.66449187 365.32508588 28.28532164 362.66242223 28.9375 360 C35.60049384 332.7400761 35.76335994 307.83318638 27.0625 281 C26.95292969 281.63808594 26.84335937 282.27617188 26.73046875 282.93359375 C26.57191406 283.75988281 26.41335938 284.58617187 26.25 285.4375 C26.09917969 286.26121094 25.94835937 287.08492187 25.79296875 287.93359375 C25.55191406 288.61550781 25.31085938 289.29742188 25.0625 290 C24.0725 290.33 23.0825 290.66 22.0625 291 C22.26746094 291.60585938 22.47242188 292.21171875 22.68359375 292.8359375 C22.95300781 293.67382812 23.22242188 294.51171875 23.5 295.375 C23.76683594 296.18710937 24.03367187 296.99921875 24.30859375 297.8359375 C28.49785372 315.41780576 27.66219123 335.87481402 22.0625 353 C21.85351074 353.65726074 21.64452148 354.31452148 21.42919922 354.99169922 C16.12579493 371.29917083 8.08187125 385.89256317 -2.9375 399 C-3.64390625 399.87011719 -4.3503125 400.74023438 -5.078125 401.63671875 C-21.26597757 420.73238928 -46.98759493 435.43259552 -71.9375 438 C-77.25175837 438.28388132 -82.55385925 438.37075786 -87.875 438.375 C-89.19040771 438.37677246 -90.50581543 438.37854492 -91.86108398 438.38037109 C-102.95049209 438.25251096 -112.87251303 436.78953736 -123.25 432.875 C-124.06686279 432.56788086 -124.88372559 432.26076172 -125.7253418 431.94433594 C-155.37285649 420.43716388 -177.18742012 396.84122115 -189.9375 368 C-194.28721778 357.06716897 -197.30321885 345.77877922 -197.9375 334 C-198.01121826 332.64261719 -198.01121826 332.64261719 -198.08642578 331.2578125 C-199.61671241 297.47083894 -188.35448543 268.61507403 -166 243.25 C-161.69382928 238.59666513 -157.10768788 234.65909432 -151.9375 231 C-154.9075 230.01 -157.8775 229.02 -160.9375 228 C-159.1615067 220.89602681 -151.14229343 217.54160367 -145.09570312 213.88671875 C-136.1317203 208.6250426 -126.98492308 204.70498882 -116.9375 202 C-116.00599121 201.73815918 -115.07448242 201.47631836 -114.11474609 201.20654297 C-105.58673072 198.99596244 -97.59354231 198.60765281 -88.8125 198.75 C-87.53246094 198.75515625 -86.25242187 198.7603125 -84.93359375 198.765625 C-77.55391075 198.82605229 -70.27243073 199.18226077 -62.9375 200 C-70.40651496 192.53098504 -85.11075004 189.17013343 -94.9375 186 C-95.9879248 185.65557861 -95.9879248 185.65557861 -97.05957031 185.30419922 C-105.97518888 182.41024322 -114.71089667 180.26120623 -124.05053711 179.2512207 C-127.84135369 178.75467652 -129.65496751 178.28478554 -132.38671875 175.53125 C-136.32465105 169.10359224 -134.93180845 163.19001874 -133.66796875 156.0390625 C-125.62751759 122.58734592 -102.98999011 93.33418638 -81.9375 67 C-80.72126953 65.47826172 -80.72126953 65.47826172 -79.48046875 63.92578125 C-77.32307418 61.26305101 -75.14003004 58.62550726 -72.9375 56 C-72.49760742 55.47519043 -72.05771484 54.95038086 -71.60449219 54.40966797 C-65.40524456 47.03558006 -59.03295447 39.85768274 -52.44238281 32.83105469 C-49.70905552 29.91627537 -47.02446763 26.98437298 -44.4375 23.9375 C-39.74890617 18.52758404 -34.67305345 13.48727785 -29.51708984 8.52587891 C-28.10591426 7.16268765 -26.71734365 5.77618501 -25.33203125 4.38671875 C-17.62049945 -2.69581372 -9.83859818 -2.40714471 0 0 Z " fill="#020202" transform="translate(360.9375,242)"/>
<path d="M0 0 C1.97991245 -0.00231004 3.95982404 -0.00549017 5.93973386 -0.00945449 C11.32955336 -0.01773643 16.71930123 -0.01370755 22.10912085 -0.00748205 C27.94148059 -0.00293137 33.77382856 -0.00995419 39.60618591 -0.01544189 C51.01116948 -0.02430941 62.41612664 -0.02242578 73.82111122 -0.01661661 C83.09352555 -0.01209015 92.36593251 -0.01149147 101.63834763 -0.01366425 C102.62909882 -0.0138934 102.62909882 -0.0138934 103.6398652 -0.01412719 C106.32150944 -0.01474993 109.00315369 -0.01538674 111.68479792 -0.01604671 C136.80196813 -0.02215445 161.91912398 -0.01663384 187.03629197 -0.00585292 C209.32061957 0.00363936 231.60492431 0.00278599 253.88925171 -0.0067749 C278.96559034 -0.0174979 304.04191632 -0.02172337 329.11825693 -0.01555037 C331.79419414 -0.014909 334.47013136 -0.01428332 337.14606857 -0.01366425 C339.12074004 -0.01320142 339.12074004 -0.01320142 341.13530386 -0.01272924 C350.3928854 -0.01100553 359.65045881 -0.01391037 368.90803909 -0.01862335 C380.19501567 -0.02424348 391.48196444 -0.02269186 402.76893784 -0.01206186 C408.52281776 -0.00682072 414.27665139 -0.00472183 420.03053093 -0.01136017 C425.30562118 -0.01735391 430.58062256 -0.0139884 435.85570483 -0.00340506 C437.75584178 -0.00118552 439.65598635 -0.0022745 441.55611832 -0.00715664 C469.1853897 -0.07265736 496.01449684 4.64213848 520.75839233 17.25396729 C521.36892456 17.55673584 521.97945679 17.85950439 522.60848999 18.17144775 C538.53359945 26.08165858 552.68874539 36.22455755 565.75839233 48.25396729 C566.30592163 48.75621826 566.85345093 49.25846924 567.41757202 49.77593994 C599.93529345 79.98750843 623.75532281 126.60603809 625.85314421 171.2713568 C625.89023196 173.3959947 625.89884739 175.51869185 625.89540672 177.64365101 C625.89805855 178.45352365 625.90071038 179.2633963 625.90344256 180.09781054 C625.91108691 182.80488872 625.91169286 185.51192117 625.91229248 188.2190094 C625.91631036 190.18245139 625.92074912 192.14589256 625.92557204 194.10933274 C625.93750789 199.50048462 625.94317908 204.89162757 625.94775319 210.28279006 C625.95372092 216.09985873 625.9653281 221.91691678 625.9760437 227.73397827 C626.00054517 241.78354878 626.01519376 255.83312281 626.02810377 269.8827081 C626.03181805 273.85464908 626.03579111 277.82658971 626.03985643 281.79853034 C626.06510085 306.49022465 626.087159 331.18191948 626.09958458 355.87362385 C626.10250553 361.59081843 626.10547314 367.30801299 626.10848999 373.02520752 C626.1088609 373.73544358 626.10923181 374.44567965 626.10961396 375.17743802 C626.12174995 398.16765394 626.15266281 421.15779297 626.19441151 444.14797282 C626.23731308 467.81651234 626.26384019 491.48501128 626.26905929 515.15359071 C626.27213545 529.08074816 626.28286527 543.00780947 626.31760788 556.9349308 C626.34573972 568.23028035 626.35655054 579.52548382 626.34541242 590.82086567 C626.34025878 596.57411499 626.34289578 602.32705904 626.36787796 608.08026314 C626.57500222 658.58235949 617.83993619 703.68851253 585.75839233 744.25396729 C585.07390015 745.14342041 584.38940796 746.03287354 583.68417358 746.94927979 C573.60066256 759.73539543 561.89268193 770.68008952 548.75839233 780.25396729 C548.20699585 780.66566162 547.65559937 781.07735596 547.0874939 781.50152588 C521.80490885 800.22250161 487.89271352 813.44080664 456.13889217 813.39098167 C455.30418391 813.3936335 454.46947565 813.39628533 453.6094732 813.39901751 C450.81795047 813.40666501 448.02647206 813.40726794 445.23493958 813.40786743 C443.21089963 813.41188507 441.18686049 813.4163238 439.16282231 813.42114699 C433.60432592 813.433085 428.0458382 813.43875451 422.48733151 813.44332814 C416.49037874 813.44929488 410.49343628 813.46090215 404.49649048 813.47161865 C390.01386349 813.49611983 375.53123263 813.51076807 361.04859194 813.52367872 C356.95541419 813.52735215 352.86223679 813.53135476 348.76905942 813.53543139 C323.33116547 813.56069908 297.89327083 813.58273318 272.45536709 813.59515953 C266.56557144 813.59808055 260.67577582 813.60104814 254.78598022 813.60406494 C254.05429333 813.60443585 253.32260643 813.60480676 252.5687472 813.60518891 C228.871548 813.61733131 205.17442329 813.64825546 181.47725904 813.68998647 C157.08777366 813.73285787 132.6983276 813.75941121 108.30880354 813.76463424 C104.85746569 813.76537458 101.4061279 813.76628524 97.95479012 813.76729202 C96.93603443 813.76757794 96.93603443 813.76757794 95.89669783 813.76786964 C85.00771214 813.77137046 74.11882035 813.79160913 63.22986903 813.81808866 C52.26358781 813.844352 41.29741915 813.85149943 30.33111136 813.84098737 C24.40013779 813.83582315 18.46946033 813.83854139 12.53853035 813.86345291 C7.09291973 813.88613344 1.6478147 813.8850612 -3.7978059 813.86624904 C-5.75220966 813.86347515 -7.70664912 813.86889924 -9.66099603 813.88406198 C-43.84352759 814.13272787 -77.11439078 802.34228419 -105.24160767 783.25396729 C-105.88420532 782.82164795 -106.52680298 782.38932861 -107.18887329 781.94390869 C-124.26155008 770.28901853 -139.35314511 755.15962192 -151.24160767 738.25396729 C-151.6837561 737.63441162 -152.12590454 737.01485596 -152.58145142 736.37652588 C-161.01538938 724.42147855 -167.21567555 711.5498545 -173.24160767 698.25396729 C-173.79389038 697.07483765 -173.79389038 697.07483765 -174.35733032 695.87188721 C-184.02589518 674.92785016 -186.87185054 650.35397083 -186.73608398 627.5447998 C-186.73927109 625.56285824 -186.74420902 623.58091887 -186.75071681 621.59898543 C-186.76339065 616.22197922 -186.75152847 610.84528005 -186.73518825 605.46829438 C-186.72191344 599.64277926 -186.73195716 593.81729514 -186.73895264 587.99177551 C-186.74898778 576.60802343 -186.73781562 565.22438841 -186.71925204 553.84065089 C-186.69944695 541.23845999 -186.69851781 528.63628821 -186.69945164 516.03408575 C-186.70125956 490.95216145 -186.68143811 465.87029779 -186.65059231 440.78839452 C-186.62333645 418.54367427 -186.61087051 396.29899706 -186.61221313 374.05426025 C-186.61229396 372.6251555 -186.61237468 371.19605074 -186.61245529 369.76694599 C-186.61249599 369.06039516 -186.6125367 368.35384433 -186.61257863 367.62588286 C-186.61278025 364.0685881 -186.61296141 360.51129333 -186.61311913 356.95399857 C-186.61315255 356.2520716 -186.61318598 355.55014464 -186.61322042 354.82694716 C-186.61395196 336.19116094 -186.6048609 317.55538007 -186.592466 298.91959834 C-186.59202545 298.25608356 -186.59158491 297.59256878 -186.59113102 296.9089475 C-186.58891294 293.57779317 -186.5866696 290.24663886 -186.58439343 286.91548456 C-186.57837662 277.67482891 -186.57623622 268.43417698 -186.57532883 259.19351959 C-186.57396064 247.9264542 -186.56497672 236.65942275 -186.54666321 225.39237174 C-186.53746814 219.65037159 -186.53132106 213.90841464 -186.53385162 208.16640663 C-186.53605996 202.90000057 -186.52889489 197.6336897 -186.51455458 192.36730346 C-186.51096227 190.47263655 -186.51063329 188.5779597 -186.51408915 186.68329254 C-186.56614067 154.56517973 -179.67581061 125.60982851 -164.24160767 97.25396729 C-163.77053589 96.36620605 -163.77053589 96.36620605 -163.28994751 95.46051025 C-156.49116233 82.6762591 -148.15918312 71.04045087 -138.28457642 60.44927979 C-136.38902478 58.41237726 -134.59479949 56.32026176 -132.80410767 54.19146729 C-99.39726634 16.04498256 -49.20193413 -0.12674369 0 0 Z M-56.24160767 32.25396729 C-57.33988892 32.62263916 -58.43817017 32.99131104 -59.56973267 33.37115479 C-77.4681978 39.76346376 -93.7806155 50.63599977 -107.48770142 63.67584229 C-109.37267855 65.44050173 -111.32329665 67.13686679 -113.32363892 68.76959229 C-117.96782353 72.72367717 -121.47675003 77.47947093 -125.24160767 82.25396729 C-126.04984985 83.23494385 -126.85809204 84.21592041 -127.69082642 85.22662354 C-140.74746134 101.43980756 -151.73953477 121.84873873 -156.24160767 142.25396729 C-156.49942017 143.42056885 -156.75723267 144.58717041 -157.02285767 145.78912354 C-157.26004517 146.95314697 -157.49723267 148.11717041 -157.74160767 149.31646729 C-157.97879517 150.46244385 -158.21598267 151.60842041 -158.46035767 152.78912354 C-160.85438457 165.95217128 -161.5367374 178.64074245 -161.52249146 191.99159241 C-161.5276698 193.95354035 -161.53369916 195.91548619 -161.54049826 197.87742919 C-161.55651512 203.23190451 -161.56021046 208.58632604 -161.56169319 213.94082248 C-161.56541592 219.73049068 -161.58052123 225.52013166 -161.59396362 231.30978394 C-161.62104308 243.95279639 -161.63316592 256.59579609 -161.64198494 269.23883271 C-161.6475243 277.14440505 -161.65600158 285.04997255 -161.66499329 292.95554161 C-161.6893667 314.8763756 -161.71003863 336.79720561 -161.71674347 358.71805286 C-161.71718672 360.13318735 -161.71763029 361.54832183 -161.71807417 362.96345631 C-161.71851544 364.38182677 -161.7189564 365.80019722 -161.71939707 367.21856767 C-161.72028212 370.0636195 -161.72117637 372.90867132 -161.72207642 375.75372314 C-161.7222952 376.45912008 -161.72251398 377.16451701 -161.72273939 377.89128961 C-161.72999467 400.74473129 -161.761819 423.59804585 -161.80845714 446.45143888 C-161.85777783 470.66396684 -161.88509486 494.87642223 -161.88747931 519.08900183 C-161.88917554 532.26773947 -161.90066575 545.44631762 -161.93711853 558.62500954 C-161.96805861 569.84960746 -161.97808062 581.07398734 -161.96164232 592.29861984 C-161.9538779 598.01538673 -161.95544713 603.73171545 -161.98375702 609.4484272 C-162.08993264 632.17715093 -162.09866956 653.37864371 -155.24160767 675.25396729 C-154.83424999 676.68783835 -154.43227787 678.12325774 -154.03736115 679.56060505 C-152.59141575 684.77173995 -150.73269306 689.4087708 -148.27676392 694.21002197 C-147.3314836 696.0765047 -146.44165355 697.97080617 -145.55801392 699.86724854 C-137.28663987 717.50508664 -126.06510978 732.59371881 -112.24160767 746.25396729 C-111.74870239 746.75331787 -111.25579712 747.25266846 -110.74795532 747.76715088 C-96.6220736 762.00925515 -78.11090998 773.51688692 -59.24160767 780.25396729 C-58.1575061 780.65357666 -57.07340454 781.05318604 -55.95645142 781.46490479 C-38.87667379 787.49306159 -22.58948602 789.85331917 -4.5294342 789.77536011 C-2.51040828 789.78141682 -0.49138694 789.78920258 1.52762645 789.79854524 C7.02135477 789.81894734 12.51481975 789.81478243 18.00856888 789.80618405 C23.95496439 789.80122051 29.90129884 789.81931385 35.84767151 789.83425903 C47.47713695 789.85967826 59.10651551 789.8633611 70.73600341 789.85865851 C80.19662631 789.85498055 89.65722219 789.85853767 99.11784172 789.86710739 C100.48132243 789.86831224 101.84480314 789.86951464 103.20828385 789.8707146 C105.26342115 789.87252929 107.31855844 789.87434663 109.37369572 789.8761793 C128.4611224 789.89301821 147.54853896 789.90172386 166.63597202 789.89336586 C167.71340934 789.89289673 167.71340934 789.89289673 168.81261307 789.89241813 C172.45244951 789.89080678 176.09228592 789.88911523 179.73212231 789.88739152 C180.81626958 789.88687826 180.81626958 789.88687826 181.92231882 789.88635463 C183.38392272 789.88566131 184.84552662 789.88496425 186.30713051 789.88426345 C209.03484237 789.87355608 231.7623989 789.88939801 254.49008179 789.92633057 C280.07963466 789.96786588 305.66909137 789.98919766 331.25867981 789.98117959 C333.99319739 789.98038902 336.72771498 789.97966591 339.46223259 789.97898483 C340.13543982 789.97880337 340.80864705 789.97862191 341.5022545 789.97843494 C351.61625998 789.97611373 361.73016758 789.98931741 371.84414864 790.01060867 C383.36327576 790.03453073 394.88217443 790.03714121 406.40130497 790.01302834 C412.26795346 790.00131585 418.13418509 789.99886891 424.0008049 790.02303314 C452.0419974 790.13041585 476.66028517 789.61352098 502.75839233 778.25396729 C503.55310485 777.91119794 504.34781737 777.5684286 505.16661209 777.21527231 C520.25513443 770.67050343 533.35798825 762.06364898 545.75839233 751.25396729 C546.74581421 750.40060791 547.73323608 749.54724854 548.75057983 748.66802979 C574.34097224 726.15060376 589.72308213 695.93865904 597.75839233 663.25396729 C597.97366577 662.43670166 598.18893921 661.61943604 598.41073608 660.77740479 C601.53960456 648.21625398 600.90757467 634.91481803 600.90556335 622.06056213 C600.90886868 620.13334031 600.91259564 618.20611917 600.91670483 616.27889889 C600.92665673 611.01112724 600.93043055 605.74336697 600.93309414 600.47558725 C600.93701748 594.78269052 600.94659418 589.08980265 600.95530701 583.39691162 C600.97501267 569.66385868 600.98512938 555.93080507 600.9940348 542.19774154 C600.99842671 535.71836171 601.0037911 529.23898269 601.00902367 522.7596035 C601.0260288 501.20085578 601.04054606 479.64210919 601.04777241 458.0833559 C601.04824715 456.69112106 601.04872304 455.29888623 601.04920007 453.90665139 C601.04943645 453.21628907 601.04967282 452.52592674 601.04991636 451.81464435 C601.05111745 448.31744925 601.05233294 444.82025417 601.05355835 441.32305908 C601.05391857 440.28205313 601.05391857 440.28205313 601.05428608 439.22001676 C601.0621712 416.74125673 601.08559016 394.26254959 601.11811429 371.78381263 C601.15250399 347.97187542 601.17213084 324.15997269 601.17541665 300.34800977 C601.17757533 287.38613555 601.18622989 274.42433913 601.21187782 261.46248817 C601.23367684 250.42086606 601.24159017 239.37934065 601.23191104 228.33769945 C601.22739312 222.71419749 601.22910505 217.09089469 601.24867249 211.46742058 C601.74660645 171.94890577 601.74660645 171.94890577 593.00839233 133.62896729 C592.66550171 132.65081055 592.32261108 131.67265381 591.96932983 130.66485596 C583.55558852 107.32171372 569.79978236 87.14986827 552.75839233 69.25396729 C552.00300171 68.42252197 551.24761108 67.59107666 550.46932983 66.73443604 C534.79805525 50.06687768 514.06833198 38.95578583 492.75839233 31.25396729 C491.74003296 30.87498291 490.72167358 30.49599854 489.67245483 30.10552979 C473.08084323 24.43281939 455.4167928 23.8059815 438.04885864 23.87301636 C436.05469389 23.86954916 434.06053107 23.86477754 432.06637216 23.85883462 C426.65102688 23.84644124 421.23584249 23.85244112 415.82049704 23.86179328 C409.955445 23.86863164 404.09041903 23.85807913 398.22537231 23.84985352 C386.7623005 23.83656568 375.29928786 23.83937147 363.8362138 23.84809144 C354.51620461 23.85488582 345.19620807 23.85585599 335.87619781 23.85251999 C335.21188932 23.85229083 334.54758082 23.85206168 333.86314177 23.85182558 C331.16594186 23.85089144 328.46874197 23.84993622 325.77154208 23.84894629 C300.51993107 23.83978902 275.2683522 23.84805903 250.01674615 23.86423698 C227.61778549 23.87847821 205.218876 23.8771921 182.81991577 23.862854 C157.60583724 23.8467675 132.39178705 23.84043212 107.1777041 23.84969079 C104.48691067 23.85065284 101.79611723 23.85159136 99.10532379 23.85251999 C98.11164004 23.85287584 98.11164004 23.85287584 97.09788187 23.85323887 C87.12470025 23.85664132 77.15154611 23.85266025 67.17836761 23.84508133 C55.83365505 23.83664906 44.48900472 23.83898302 33.14429924 23.85492356 C27.36190156 23.86278205 21.57960749 23.86593921 15.79721069 23.8559761 C10.49500836 23.8469788 5.19300482 23.85204436 -0.10917971 23.86790876 C-2.01799194 23.87123527 -3.92682128 23.86961106 -5.83562234 23.8622814 C-23.54610556 23.79953807 -39.49778373 26.45268389 -56.24160767 32.25396729 Z " fill="#020202" transform="translate(292.2416076660156,103.74603271484375)"/>
<path d="M0 0 C0.99 0 1.98 0 3 0 C3.62491333 1.40185547 3.62491333 1.40185547 4.26245117 2.83203125 C16.60026748 30.4447088 30.15304911 56.54885176 46.24902344 82.20458984 C47.70049502 84.52184439 49.14048446 86.84514985 50.5703125 89.17578125 C55.59712593 97.34664584 60.84476434 105.36969213 66.11090088 113.38748169 C69.38676222 118.37608817 72.6563415 123.36881473 75.92596436 128.36151123 C76.89587039 129.84114568 77.86796983 131.31934178 78.84033203 132.79736328 C89.17990005 148.55569384 99.26847826 165.07669059 105.05859375 183.109375 C105.90534885 185.70936993 106.92226141 188.08258944 108.0625 190.5625 C118.33876414 216.52579594 116.70651975 247.40539443 106.1875 272.875 C93.0570182 303.14254566 70.04219464 325.64343049 39.5546875 338.234375 C17.34174691 346.99309833 -10.57806531 347.50878138 -33 339 C-33.67305176 338.75894531 -34.34610352 338.51789063 -35.03955078 338.26953125 C-62.59157223 328.23371905 -85.8859393 306.97080464 -98.47924805 280.57226562 C-99.3338009 278.72138027 -100.16771223 276.86100356 -101 275 C-101.39574219 274.15566406 -101.79148437 273.31132813 -102.19921875 272.44140625 C-103.27276463 269.99304271 -104.14705212 267.53406923 -105 265 C-105.44472656 263.78828125 -105.88945313 262.5765625 -106.34765625 261.328125 C-116.79529348 230.08261877 -108.99861775 195.68782643 -95 167 C-94.60796387 166.19369141 -94.21592773 165.38738281 -93.81201172 164.55664062 C-87.70736183 152.17213564 -80.54307037 140.54928808 -73 129 C-72.33484375 127.97890137 -71.6696875 126.95780273 -70.984375 125.90576172 C-65.0092452 116.73726304 -59.01797602 107.57927457 -52.99609375 98.44140625 C-45.5670779 87.12042058 -38.6293516 75.51257181 -31.71289062 63.87304688 C-30.06394377 61.10725345 -28.39800338 58.35226758 -26.73046875 55.59765625 C-24.72047918 52.24901028 -22.83447093 48.88950235 -21.125 45.375 C-19.48862225 42.03423919 -17.85178361 38.69591161 -16.16015625 35.3828125 C-7.19963368 18.06891371 -7.19963368 18.06891371 0 0 Z " fill="#010101" transform="translate(661,453)"/>
<path d="M0 0 C0.13535156 1.14855469 0.27070313 2.29710937 0.41015625 3.48046875 C2.17492108 16.80689029 5.39101702 28.39659094 16.36328125 37.2265625 C29.89042946 46.32482219 44.60452114 50.12725076 60.54165649 52.20974731 C64.30131753 52.70389676 68.05507871 53.23873367 71.80859375 53.77734375 C72.53362595 53.88130966 73.25865814 53.98527557 74.00566101 54.09239197 C81.82655723 55.23465363 89.39418234 56.85319663 97 59 C98.09828125 59.30550781 99.1965625 59.61101562 100.328125 59.92578125 C114.2042812 63.99813144 127.21641809 69.33682544 140.03076172 75.99853516 C141.92203067 76.96034835 143.82917363 77.86908183 145.75390625 78.76171875 C161.76312191 86.26700777 176.23721985 96.57627594 190.6875 106.6875 C191.71991821 107.40824707 191.71991821 107.40824707 192.77319336 108.14355469 C201.64357344 114.44468411 201.64357344 114.44468411 202.6875 119 C202.02743904 128.48087565 192.98038801 137.94494196 187.62719727 145.43237305 C171.240222 166.97325006 171.240222 166.97325006 165 192 C167.2275224 199.71581554 171.2594053 204.24834766 178.11987305 208.23046875 C184.76871699 211.6757978 191.46715696 213.8228468 198.6875 215.75 C199.77611328 216.05292969 200.86472656 216.35585938 201.98632812 216.66796875 C207.31341659 218.12522699 212.50662138 219.40272278 218 220 C218 220.66 218 221.32 218 222 C197.99860981 222.48456592 176.07633147 222.99621465 160 209 C153.8196608 201.77607632 151.64020369 196.02742693 151.79296875 186.59765625 C153.2238816 168.64374976 169.12018398 150.70308603 179.12890625 136.5625 C179.59643311 135.89138184 180.06395996 135.22026367 180.5456543 134.52880859 C181.401548 133.30304935 182.27059968 132.0863207 183.15551758 130.88134766 C185.96849638 126.83070599 186.70125455 123.88559986 186 119 C177.89220209 107.98171054 157.8934424 100.65789858 145.74267578 94.83886719 C144.20480707 94.09858743 142.67766527 93.33611178 141.15234375 92.5703125 C105.88563483 75.44228796 63.53485758 78.6301364 27 90 C26.01 90.66 25.02 91.32 24 92 C24.54712646 92.11480713 25.09425293 92.22961426 25.65795898 92.34790039 C61.75170477 100.06262292 87.45033172 118.21206282 108 149 C114.33146311 158.84557661 117.4847065 168.79481973 115.59106445 180.53540039 C115.04040603 183.06487173 114.41480963 185.5607164 113.75 188.0625 C113.44255859 189.31256836 113.44255859 189.31256836 113.12890625 190.58789062 C106.97552335 214.54879069 90.52889136 240.90085808 72.42578125 257.6171875 C70.88051973 258.96337471 70.88051973 258.96337471 70 261 C69.34 261 68.68 261 68 261 C68.60791774 256.83142124 69.559128 252.99861878 70.875 249 C79.20732589 222.31240549 82.43252697 191.62829954 69 166 C52.57512683 135.0570991 23.03984732 111.24726491 -8.62109375 96.8671875 C-9.40049316 96.51285645 -10.17989258 96.15852539 -10.98291016 95.79345703 C-12.50849073 95.1101274 -14.04063059 94.44121492 -15.57958984 93.78857422 C-17.67578125 92.859375 -17.67578125 92.859375 -21 91 C-21.70776367 88.88378906 -21.70776367 88.88378906 -22 87 C-8.83695345 77.37190588 5.09373336 69.61274887 19.9375 62.875 C21.22539429 62.28912109 21.22539429 62.28912109 22.53930664 61.69140625 C23.33973389 61.33691406 24.14016113 60.98242188 24.96484375 60.6171875 C25.6724585 60.30378418 26.38007324 59.99038086 27.10913086 59.66748047 C29 59 29 59 32 59 C32 58.34 32 57.68 32 57 C3.55419072 49.45040133 -23.14221633 56.56597404 -50.4921875 64.78125 C-55.69254331 66.33139542 -60.89977594 67.84575007 -66.1328125 69.28125 C-67.3305127 69.61189453 -68.52821289 69.94253906 -69.76220703 70.28320312 C-72.64819686 70.92211627 -75.0625566 71.15237858 -78 71 C-74.22314218 66.35903905 -70.31021648 62.35048442 -65.6875 58.5625 C-51.9574394 47.01676722 -39.25533125 34.38487688 -26.66210938 21.62548828 C-21.60978302 16.52411919 -16.45676832 11.66357368 -11 7 C-10.19949219 6.26910156 -9.39898437 5.53820312 -8.57421875 4.78515625 C-7.95160156 4.21667969 -7.32898438 3.64820313 -6.6875 3.0625 C-6.05199219 2.47597656 -5.41648437 1.88945312 -4.76171875 1.28515625 C-3 0 -3 0 0 0 Z " fill="#F9F9F9" transform="translate(339,339)"/>
<path d="M0 0 C14.15862123 13.13133956 23.88123849 27.71940331 30.875 45.625 C31.20113281 46.43195313 31.52726563 47.23890625 31.86328125 48.0703125 C32.66686122 50.23791797 33.29362925 52.38727106 33.875 54.625 C34.15214844 55.64078125 34.42929687 56.6565625 34.71484375 57.703125 C40.82925773 84.18952657 37.87297112 112.73683686 24.875 136.625 C24.56159668 137.22248047 24.24819336 137.81996094 23.92529297 138.43554688 C13.94769305 157.44726242 -0.97453038 173.22819349 -19.125 184.625 C-21.125 183.625 -21.125 183.625 -22.01953125 181.2890625 C-22.32246094 180.28617188 -22.62539063 179.28328125 -22.9375 178.25 C-25.23584956 171.05701711 -28.30556074 164.38517448 -31.58984375 157.59765625 C-32.05519531 156.61667969 -32.52054688 155.63570312 -33 154.625 C-33.43054688 153.738125 -33.86109375 152.85125 -34.3046875 151.9375 C-35.125 149.625 -35.125 149.625 -34.125 146.625 C-32.48406055 145.2147726 -30.78685941 143.86940789 -29.0625 142.5625 C-14.57131445 130.93955687 -5.0613348 114.093737 -2.44140625 95.70703125 C-0.38521138 75.67817016 -4.69743291 56.06212908 -17.1875 40 C-18.47627914 38.52066208 -19.78726571 37.060221 -21.125 35.625 C-21.69992187 34.98304688 -22.27484375 34.34109375 -22.8671875 33.6796875 C-35.089745 20.6685779 -51.8660134 14.9391606 -69.375 14.25 C-80.96228428 14.45865458 -92.13122129 17.80797821 -102.125 23.625 C-103.38371159 24.34445552 -104.64284996 25.06316471 -105.90234375 25.78125 C-106.96582031 26.3896875 -108.02929688 26.998125 -109.125 27.625 C-114.1659896 18.22915549 -119.14724666 8.80729687 -123.75 -0.8125 C-124.09224609 -1.5149585 -124.43449219 -2.21741699 -124.78710938 -2.94116211 C-126.41918457 -6.40253573 -127.125 -8.47432358 -127.125 -12.375 C-83.96321307 -33.44449789 -37.48378182 -32.79830909 0 0 Z " fill="#020202" transform="translate(805.125,453.375)"/>
<path d="M0 0 C-0.62428218 2.66683649 -1.24940826 5.33347067 -1.875 8 C-2.13603516 9.11568359 -2.13603516 9.11568359 -2.40234375 10.25390625 C-2.75518618 11.75675364 -3.11494384 13.25799351 -3.48144531 14.75756836 C-3.82518246 16.24402116 -4.12731297 17.740752 -4.38574219 19.24438477 C-5.06033625 22.81458807 -5.46081223 24.61181893 -8.46875 26.77734375 C-9.4690625 27.16019531 -10.469375 27.54304687 -11.5 27.9375 C-24.37719559 33.65898451 -32.78614801 43.91365048 -37.875 56.875 C-42.62725568 69.93583514 -42.91331894 83.90203709 -37.55078125 96.84765625 C-30.68496703 110.80410983 -21.69316474 120.77355491 -6.7578125 126.171875 C7.44913727 129.30272048 21.46978284 127.69288469 33.94921875 120.23828125 C46.55871235 111.75740766 55.61122722 97.87603351 59 83 C59.56589844 82.86722656 60.13179688 82.73445312 60.71484375 82.59765625 C61.81505859 82.33275391 61.81505859 82.33275391 62.9375 82.0625 C64.03384766 81.80146484 64.03384766 81.80146484 65.15234375 81.53515625 C66.99969898 81.16112431 66.99969898 81.16112431 68 80 C69.37068189 66.18774403 64.89789034 49.18753927 56.74609375 37.87109375 C55 35 55 35 55.08984375 32.45703125 C56.08959294 29.75813752 57.23442319 27.24149387 58.5625 24.6875 C59.01753906 23.80449219 59.47257812 22.92148437 59.94140625 22.01171875 C60.46541016 21.01591797 60.46541016 21.01591797 61 20 C76.37387136 34.57453663 81.73032596 55.28366095 82.375 75.8125 C82.2745365 95.12251916 74.53654545 112.48078921 62 127 C61.40445313 127.79148437 60.80890625 128.58296875 60.1953125 129.3984375 C51.96196502 139.15539376 40.72160835 145.40622804 29 150 C28.01531738 150.41282227 28.01531738 150.41282227 27.01074219 150.83398438 C20.35850143 153.39043655 13.94558257 153.53902578 6.875 153.5 C5.67738037 153.49427979 4.47976074 153.48855957 3.24584961 153.48266602 C-16.82369589 153.07858121 -33.46647669 143.77692559 -47.40625 129.54296875 C-53.86476042 122.16655359 -57.98800929 113.85884653 -62 105 C-62.52851563 103.87078125 -63.05703125 102.7415625 -63.6015625 101.578125 C-69.57783505 86.28688014 -69.22113769 65.14339307 -63.16943359 49.90917969 C-61.06115026 45.1137396 -58.61617369 40.53496373 -56 36 C-55.5153125 35.14792969 -55.030625 34.29585937 -54.53125 33.41796875 C-45.17035977 18.31536969 -31.01399051 6.40586365 -14 1 C-9.2671197 -0.0387666 -4.81985808 -0.083101 0 0 Z " fill="#FAFAFA" transform="translate(269,490)"/>
<path d="M0 0 C0.16604736 0.80630859 0.33209473 1.61261719 0.50317383 2.44335938 C1.12990393 5.47114184 1.76240685 8.49764761 2.39868164 11.5234375 C2.80467595 13.4626292 3.20416055 15.40318015 3.60351562 17.34375 C5.22260675 25.13476735 5.22260675 25.13476735 7.76171875 32.65625 C9.31624092 36.85395023 9.31624092 36.85395023 8 40 C6.38037109 41.26098633 6.38037109 41.26098633 4.2734375 42.33203125 C3.10844727 42.9355542 3.10844727 42.9355542 1.91992188 43.55126953 C1.08009766 43.96747559 0.24027344 44.38368164 -0.625 44.8125 C-1.48802734 45.25190918 -2.35105469 45.69131836 -3.24023438 46.14404297 C-5.8181464 47.44776529 -8.4060199 48.72859161 -11 50 C-11.68030273 50.33467285 -12.36060547 50.6693457 -13.06152344 51.01416016 C-22.83833123 55.78501749 -32.86855878 59.96148954 -42.9140625 64.12597656 C-44.6277135 64.84400917 -46.33104565 65.58662064 -48.03125 66.3359375 C-72.29388595 76.9686809 -98.51119479 82.99558886 -124.14770508 89.29223633 C-126.12632582 89.78320796 -128.10259431 90.28371922 -130.0769043 90.79174805 C-135.885104 92.28029084 -141.63028206 93.57083524 -147.5625 94.4375 C-148.33698486 94.55528809 -149.11146973 94.67307617 -149.90942383 94.79443359 C-152.60540389 95.20236935 -155.30267621 95.60104909 -158 96 C-160.31514673 96.3473727 -162.63024844 96.69504553 -164.9453125 97.04296875 C-169.62321223 97.74287642 -174.30128316 98.44154962 -178.98046875 99.1328125 C-179.94879639 99.27605957 -180.91712402 99.41930664 -181.91479492 99.56689453 C-201.12343346 102.26343048 -220.46450064 102.21380353 -239.83227539 102.24023438 C-242.55311644 102.24459806 -245.27363666 102.25844448 -247.99438477 102.28125 C-267.22581379 102.43918897 -285.9170524 101.40539879 -305 99 C-301.24830124 96.95710194 -298.28487404 96.65083589 -294 96.4375 C-289.47933724 96.26661828 -289.47933724 96.26661828 -285.04296875 95.50390625 C-281.19907187 94.55579402 -277.16959295 94.59381012 -273.22460938 94.39453125 C-269.82122833 94.48829728 -269.82122833 94.48829728 -267 93 C-264.38386808 92.58982836 -261.7798215 92.23509844 -259.15234375 91.9140625 C-258.34825577 91.81161224 -257.54416779 91.70916199 -256.7157135 91.60360718 C-253.27376881 91.16508445 -249.83065043 90.73616281 -246.38745117 90.30761719 C-228.05526948 89.53314961 -228.05526948 89.53314961 -212 84 C-210.4429217 83.6681451 -208.87519099 83.38603503 -207.3046875 83.125 C-200.53333334 81.94280432 -193.83457952 80.48937919 -187.125 79 C-185.92875 78.73960937 -184.7325 78.47921875 -183.5 78.2109375 C-182.34757812 77.95570313 -181.19515625 77.70046875 -180.0078125 77.4375 C-178.45537842 77.09525391 -178.45537842 77.09525391 -176.87158203 76.74609375 C-174.12271078 76.03188268 -171.61757808 75.09152027 -169 74 C-167.23675349 73.53286118 -165.46494929 73.09729382 -163.6875 72.6875 C-156.72019525 70.99044535 -149.91719907 68.84608383 -143.09082031 66.66601562 C-139.60627322 65.55603846 -136.11557058 64.46585502 -132.625 63.375 C-131.9542041 63.16447998 -131.2834082 62.95395996 -130.59228516 62.73706055 C-126.94758005 61.59588519 -123.2938606 60.49803002 -119.625 59.4375 C-116.53378484 58.51375192 -113.54815498 57.46606364 -110.55859375 56.25390625 C-109.68267578 55.89949463 -108.80675781 55.54508301 -107.90429688 55.17993164 C-106.94587891 54.7905542 -105.98746094 54.40117676 -105 54 C-103.96939453 53.58548584 -102.93878906 53.17097168 -101.87695312 52.74389648 C-67.58851144 38.92206217 -34.04418269 23.14527809 -4.03125 1.30932617 C-2 0 -2 0 0 0 Z " fill="#040404" transform="translate(533,691)"/>
<path d="M0 0 C1.91015625 2.23828125 1.91015625 2.23828125 4.0625 5.3125 C11.53243723 15.65324267 19.89837322 24.22213147 30 32 C27.35175609 35.2960158 24.33144205 36.11266624 20.375 37.375 C19.39877686 37.68981323 19.39877686 37.68981323 18.40283203 38.01098633 C12.54274711 39.88073835 6.63964849 41.6149384 0.72412109 43.30029297 C-2.03520502 44.09177868 -4.73489555 44.88939064 -7.38623047 45.99560547 C-10.09297033 47.03572576 -12.65406089 47.63800807 -15.5 48.18359375 C-16.55316406 48.38919922 -17.60632813 48.59480469 -18.69140625 48.80664062 C-19.78324219 49.01482422 -20.87507812 49.22300781 -22 49.4375 C-28.44024501 50.6778145 -34.85530496 51.94506303 -41.234375 53.47265625 C-49.1811429 55.33242399 -57.19974292 56.67811662 -65.25 58 C-66.04222961 58.13039673 -66.83445923 58.26079346 -67.6506958 58.3951416 C-104.56189798 64.44348756 -141.1025609 66.18038403 -178.45488358 66.24542618 C-180.58630057 66.24991844 -182.71768555 66.25761947 -184.84909058 66.26596069 C-203.65652964 66.32982041 -222.26074799 65.63675433 -241 64 C-241 63.34 -241 62.68 -241 62 C-228.87349051 60.25526751 -216.75220955 58.73445281 -204.5625 57.5 C-195.88550644 56.61423454 -187.44402242 55.51731122 -178.92578125 53.62109375 C-175.66158598 52.92816044 -172.45106613 52.5372608 -169.125 52.30859375 C-166.78185995 52.01768283 -166.78185995 52.01768283 -163.7265625 51.0546875 C-159.96448873 49.98994964 -156.2268137 49.30323631 -152.375 48.6875 C-125.44769262 44.10400334 -97.80123925 36.98146437 -72.09130859 27.74462891 C-69.76221216 26.91533354 -67.42328696 26.11851679 -65.08203125 25.32421875 C-54.9125377 21.85470653 -44.94777423 18.04820372 -35.0559082 13.85498047 C-32.76844292 12.90370349 -30.46546786 11.99697744 -28.16015625 11.08984375 C-21.96347215 8.62336924 -15.93005341 5.81710363 -9.88476562 3.00390625 C-9.03720703 2.61589844 -8.18964844 2.22789062 -7.31640625 1.828125 C-6.55787354 1.4765332 -5.79934082 1.12494141 -5.01782227 0.76269531 C-3 0 -3 0 0 0 Z " fill="#040404" transform="translate(556,753)"/>
<path d="M0 0 C1.28699958 3.86099873 0.44118335 4.97488289 -1.1328125 8.671875 C-1.6071875 9.80463867 -2.0815625 10.93740234 -2.5703125 12.10449219 C-3.33988281 13.90901855 -3.33988281 13.90901855 -4.125 15.75 C-7.75627827 24.40572799 -11.22689641 33.01511807 -14 41.984375 C-15.13943236 45.42047571 -16.56590335 48.6766526 -18 52 C-20.10291923 57.63134673 -22.0575072 63.31160503 -24 69 C-24.26780273 69.77520996 -24.53560547 70.55041992 -24.81152344 71.34912109 C-34.17297389 98.65618839 -37.9816288 128.52600113 -24.94140625 155.34375 C-20.22847464 164.47135638 -14.03380133 171.28854927 -6.3203125 177.90625 C-3.58924426 180.37064828 -2.12366117 182.00352101 -1.6640625 185.70703125 C-1.53087226 196.29565501 -1.53087226 196.29565501 -6 201 C-9.8130139 204.71524431 -13.08905302 205.35815903 -18.25 205.625 C-25.26033746 205.37832524 -29.55246964 203.27640005 -35 199 C-35.83273437 198.35804688 -36.66546875 197.71609375 -37.5234375 197.0546875 C-48.21765606 188.13735449 -54.73914434 176.72078282 -60 164 C-60.49306641 162.8553125 -60.49306641 162.8553125 -60.99609375 161.6875 C-69.56491758 140.69593158 -63.1916966 115.6328997 -54.90356445 95.71484375 C-44.30827751 71.20810728 -30.40205194 48.32042077 -16.078125 25.8515625 C-12.58702713 20.36848526 -9.16688089 14.84203385 -5.75 9.3125 C-4.88955078 7.92019165 -4.88955078 7.92019165 -4.01171875 6.49975586 C-2.6737722 4.3336056 -1.33647673 2.16705732 0 0 Z " fill="#FAFAFA" transform="translate(642,542)"/>
<path d="M0 0 C5.69789422 0.61807666 11.12125486 1.65824005 16.6875 3 C22.13515518 4.27666295 27.32832742 5.23161854 32.9375 5.5 C43.31491993 6.09970015 52.25425524 10.06351216 60 17 C68.81162564 26.92259053 73.06026357 36.68550531 72.4453125 49.9609375 C71.51114235 60.93613211 66.07272214 70.69736943 57.84375 77.8828125 C52.55843023 82 52.55843023 82 50 82 C48.87768555 80.57324219 48.87768555 80.57324219 47.63671875 78.546875 C47.1689502 77.7930957 46.70118164 77.03931641 46.21923828 76.26269531 C45.71376465 75.43350586 45.20829102 74.60431641 44.6875 73.75 C43.59639796 71.98874885 42.50390608 70.22835808 41.41015625 68.46875 C40.84570801 67.55867187 40.28125977 66.64859375 39.69970703 65.7109375 C37.06992115 61.51657634 34.34452701 57.38647586 31.625 53.25 C25.07352124 43.23589263 18.86597964 33.02466349 12.68554688 22.77880859 C11.02892105 20.04767952 9.35435079 17.32854911 7.671875 14.61328125 C7.15641113 13.77941895 6.64094727 12.94555664 6.10986328 12.08642578 C5.14284342 10.52412109 4.17262379 8.96379098 3.19873047 7.40576172 C0 2.22287005 0 2.22287005 0 0 Z " fill="#030303" transform="translate(703,493)"/>
<path d="M0 0 C4.50871015 0.72968904 7.28474359 2.32155933 11 5 C9.96053706 9.57363694 8.36014718 13.4190962 6.2109375 17.59375 C3.35559585 23.23610326 0.7567564 28.94619452 -1.75 34.75 C-6.87134856 46.49788972 -12.1107155 58.19062241 -17.375 69.875 C-17.76522339 70.74153198 -18.15544678 71.60806396 -18.55749512 72.50085449 C-19.32257423 74.19964404 -20.08785886 75.89834104 -20.85336304 77.59693909 C-21.58283509 79.21566436 -22.31187047 80.8345865 -23.04043579 82.45372009 C-25.36633024 87.61688336 -27.73061642 92.76068375 -30.1484375 97.8815918 C-31.45851042 101.14062354 -31.70012807 103.56937248 -31 107 C-28.40444213 109.66570809 -26.523188 110.825604 -23 112 C-23.33906879 117.42510066 -26.5286089 121.07877093 -30 125 C-33.71203811 128.21041134 -37.04153892 128.47036163 -41.79296875 128.28125 C-46.54562502 127.67560177 -49.32979237 125.58278924 -52.875 122.5 C-55.63955556 118.86813289 -55.81965973 115.22064308 -55.625 110.76171875 C-54.55374767 106.02812253 -51.70402496 103.0038739 -48 100 C-47.37246826 99.77900635 -46.74493652 99.5580127 -46.09838867 99.33032227 C-42.97696547 97.35142348 -41.95264475 94.42470605 -40.50390625 91.15625 C-40.18848373 90.47252319 -39.87306122 89.78879639 -39.54808044 89.08435059 C-38.54091411 86.89481931 -37.55130341 84.69787646 -36.5625 82.5 C-35.57614567 80.33828643 -34.58624423 78.17822222 -33.59608459 76.01824951 C-32.95384007 74.61579863 -32.31339287 73.21252322 -31.67478943 71.80841064 C-29.55056598 67.14830146 -27.30085086 62.56649249 -24.98168945 58 C-23.74166823 55.47369961 -22.75135858 52.90179649 -21.8125 50.25 C-19.18826185 43.241063 -16.08281092 36.48533438 -12.95678711 29.68798828 C-8.45310799 19.87048886 -4.2062382 9.94789181 0 0 Z " fill="#F7F7F7" transform="translate(323,453)"/>
<path d="M0 0 C0.33 0 0.66 0 1 0 C0.85075917 8.28964983 -0.3894566 15.09676333 -3.6484375 22.734375 C-4.6792262 25.22495116 -5.54714673 27.63552724 -6.36328125 30.1953125 C-13.94157231 53.27816845 -26.98271267 75.02179628 -42 94 C-43.41880268 95.93593637 -44.83539534 97.87349398 -46.25 99.8125 C-49.94656334 104.74342813 -53.85151057 109.4575512 -57.875 114.125 C-58.43477539 114.77702393 -58.99455078 115.42904785 -59.57128906 116.10083008 C-60.10206055 116.70950928 -60.63283203 117.31818848 -61.1796875 117.9453125 C-61.65132324 118.48687988 -62.12295898 119.02844727 -62.60888672 119.58642578 C-64 121 -64 121 -67 123 C-67.17391279 118.14381975 -67.30046322 113.28947616 -67.38452148 108.4309082 C-67.41958104 106.78084721 -67.4672456 105.13100146 -67.52807617 103.48168945 C-68.01984338 89.79899006 -68.01984338 89.79899006 -65.54248047 85.42895508 C-63.78339029 83.65512392 -62.09471173 82.34883241 -60 81 C-58.73813958 79.95161337 -57.48681461 78.89031996 -56.25 77.8125 C-55.58097656 77.23242188 -54.91195312 76.65234375 -54.22265625 76.0546875 C-45.12378267 67.64342651 -37.45804468 57.85311847 -30 48 C-29.53029785 47.38189453 -29.0605957 46.76378906 -28.57666016 46.12695312 C-17.63609596 31.66884646 -8.11363889 16.22727777 0 0 Z " fill="#050505" transform="translate(858,576)"/>
<path d="M0 0 C0.33 0.66 0.66 1.32 1 2 C0.20078125 2.30292969 -0.5984375 2.60585938 -1.421875 2.91796875 C-9.00856417 5.8119523 -16.51921339 8.84390987 -24 12 C-25.50632119 12.62805819 -27.01284669 13.25562652 -28.51953125 13.8828125 C-31.80666414 15.25187417 -35.08532257 16.63902809 -38.359375 18.0390625 C-41.16394481 19.23725361 -43.97505676 20.38382068 -46.828125 21.4609375 C-55.4132963 24.91497153 -59.23105694 29.19540443 -64 37 C-87.82079258 74.17737749 -126.59350768 91.56988332 -167 107 C-167 106.01 -167 105.02 -167 104 C-153.72705902 90.75273202 -135.67727548 82.96536774 -119.20703125 74.57763672 C-116.63425212 73.26730341 -114.06701735 71.94657452 -111.5 70.625 C-110.74203125 70.24496826 -109.9840625 69.86493652 -109.203125 69.47338867 C-104.73728797 67.16667541 -101.10034243 64.59108873 -97.42773438 61.14990234 C-96 60 -96 60 -94 60 C-93.74347656 59.43023437 -93.48695313 58.86046875 -93.22265625 58.2734375 C-91.87059346 55.75937826 -90.27930889 53.80540406 -88.4375 51.625 C-85.15375757 47.58575886 -82.22740014 43.44714075 -79.4375 39.0625 C-79.05924072 38.46912842 -78.68098145 37.87575684 -78.29125977 37.2644043 C-76.52746578 34.476521 -74.80572079 31.67283542 -73.12109375 28.8359375 C-66.2396092 17.41298105 -58.48265375 14.67451091 -46 11 C-45.24589844 10.77779785 -44.49179687 10.5555957 -43.71484375 10.32666016 C-36.1359515 8.1172043 -28.56218709 5.94970012 -20.7890625 4.53515625 C-16.63141293 3.73739996 -12.50606028 2.79945263 -8.375 1.875 C-7.55515625 1.69187256 -6.7353125 1.50874512 -5.890625 1.32006836 C-3.92688508 0.88093118 -1.96341406 0.44059183 0 0 Z " fill="#F3F3F4" transform="translate(760,306)"/>
<path d="M0 0 C1.39214652 4.17643955 -0.29335734 6.83437793 -1.9375 10.6875 C-2.22818359 11.38939453 -2.51886719 12.09128906 -2.81835938 12.81445312 C-3.53710313 14.54650775 -4.26745331 16.27373781 -5 18 C-5.33 17.34 -5.66 16.68 -6 16 C-7.98 16.99 -7.98 16.99 -10 18 C-8.47146065 13.72813475 -6.28490519 10.00673137 -3.875 6.1875 C-3.50246094 5.59001953 -3.12992188 4.99253906 -2.74609375 4.37695312 C-1.8342952 2.91573749 -0.91764024 1.45755415 0 0 Z " fill="#E1E1E1" transform="translate(642,542)"/>
<path d="M0 0 C0.33 0.66 0.66 1.32 1 2 C4.02934491 2.65772428 4.02934491 2.65772428 7 3 C7 3.33 7 3.66 7 4 C-0.26 3.67 -7.52 3.34 -15 3 C-15 2.34 -15 1.68 -15 1 C-9.92928099 0.28832014 -5.11791642 -0.10662326 0 0 Z " fill="#3A3B3B" transform="translate(330,814)"/>
<path d="M0 0 C0.33 0.66 0.66 1.32 1 2 C-3.62 3.65 -8.24 5.3 -13 7 C-13 6.34 -13 5.68 -13 5 C-14.65 5 -16.3 5 -18 5 C-14.52934193 2.68622795 -11.32959845 2.11015527 -7.3125 1.375 C-6.61060547 1.2409375 -5.90871094 1.106875 -5.18554688 0.96875 C-3.45818294 0.6397283 -1.72923409 0.31904688 0 0 Z " fill="#D0D1D1" transform="translate(760,306)"/>
<path d="M0 0 C1.75128818 0.28382946 3.50100003 0.57739529 5.25 0.875 C6.71179688 1.11863281 6.71179688 1.11863281 8.203125 1.3671875 C11 2 11 2 15 4 C10.38 4 5.76 4 1 4 C0.67 2.68 0.34 1.36 0 0 Z " fill="#F3F3F3" transform="translate(539,556)"/>
<path d="M0 0 C0.79921875 0.01804687 1.5984375 0.03609375 2.421875 0.0546875 C3.02515625 0.07789063 3.6284375 0.10109375 4.25 0.125 C4.25 0.785 4.25 1.445 4.25 2.125 C5.24 2.455 6.23 2.785 7.25 3.125 C1.79230189 3.23638159 -3.36509359 3.04157981 -8.75 2.125 C-5.68753253 0.34090198 -3.52920727 -0.10380021 0 0 Z " fill="#272727" transform="translate(236.75,787.875)"/>
<path d="M0 0 C0.33 0 0.66 0 1 0 C1.25413123 3.62370661 1.47405533 7.24868737 1.6875 10.875 C1.76033203 11.90753906 1.83316406 12.94007813 1.90820312 14.00390625 C1.96298828 14.99003906 2.01777344 15.97617187 2.07421875 16.9921875 C2.13182373 17.90339355 2.18942871 18.81459961 2.2487793 19.75341797 C2.16668213 20.49479004 2.08458496 21.23616211 2 22 C1.01 22.66 0.02 23.32 -1 24 C-0.67 16.08 -0.34 8.16 0 0 Z " fill="#404140" transform="translate(792,675)"/>
<path d="M0 0 C0.33 0 0.66 0 1 0 C0.88623383 2.12563103 0.75864369 4.2505261 0.625 6.375 C0.52058594 8.15003906 0.52058594 8.15003906 0.4140625 9.9609375 C0 13 0 13 -2 15 C-1.979375 13.88625 -1.95875 12.7725 -1.9375 11.625 C-1.73619282 8.16784079 -1.73619282 8.16784079 -3 6 C-2.06553465 3.96855359 -1.06775224 1.96466413 0 0 Z " fill="#404040" transform="translate(858,576)"/>
<path d="M0 0 C1.39195915 4.17587745 -0.17676781 6.13474776 -2 10 C-2.99 10 -3.98 10 -5 10 C-3.66511872 6.40608886 -2.03977277 3.24509304 0 0 Z " fill="#BBBBBC" transform="translate(642,542)"/>
<path d="M0 0 C2.25245881 2.68841859 3.88213958 4.64641875 5 8 C1.63279613 6.60667426 0.0140476 5.0210714 -2 2 C-1.34 2 -0.68 2 0 2 C0 1.34 0 0.68 0 0 Z " fill="#D7D7D7" transform="translate(577,437)"/>
<path d="M0 0 C-0.33 0.66 -0.66 1.32 -1 2 C-4.63 1.67 -8.26 1.34 -12 1 C-12 0.67 -12 0.34 -12 0 C-7.22144261 -2.04795317 -4.77855739 -2.04795317 0 0 Z " fill="#BCBCBC" transform="translate(299,441)"/>
<path d="M0 0 C-1.65 0.66 -3.3 1.32 -5 2 C-5 2.66 -5 3.32 -5 4 C-7.97 3.505 -7.97 3.505 -11 3 C-7.74003139 -0.25996861 -4.40088745 -1.46696248 0 0 Z " fill="#404040" transform="translate(372,428)"/>
<path d="M0 0 C0.99 0.495 0.99 0.495 2 1 C2.625 4.0625 2.625 4.0625 3 7 C2.01 7 1.02 7 0 7 C0 4.69 0 2.38 0 0 Z " fill="#E2E2E3" transform="translate(387,522)"/>
</svg>
